<svg width="82" height="81" viewBox="0 0 82 81" fill="black" xmlns="http://www.w3.org/2000/svg" class="h-16 w-auto md:h-20"><mask id="mask0_27657_2940" maskUnits="userSpaceOnUse" x="-19" y="-19" width="120" height="120"><path d="M100.834 -19H-19V100.833H100.834V-19Z" fill="white"></path></mask><g mask="url(#mask0_27657_2940)"><mask id="mask1_27657_2940" maskUnits="userSpaceOnUse" x="0" y="0" width="82" height="81"><path d="M81.209 0.94873H0.630859V80.8075H81.209V0.94873Z" fill="white"></path></mask><g mask="url(#mask1_27657_2940)"><path d="M31.5362 30.0172V22.4306C31.5362 21.7916 31.776 21.3123 32.3347 20.9932L47.5882 12.2088C49.6645 11.0109 52.1402 10.4522 54.6953 10.4522C64.2782 10.4522 70.3479 17.8792 70.3479 25.7849C70.3479 26.3438 70.3479 26.9827 70.2679 27.6217L54.4557 18.3579C53.4975 17.7992 52.5388 17.7992 51.5807 18.3579L31.5362 30.0172ZM67.1532 59.5652V41.4368C67.1532 40.3186 66.6737 39.52 65.7157 38.9611L45.6712 27.3018L52.2196 23.5482C52.7785 23.2291 53.2578 23.2291 53.8167 23.5482L69.0701 32.3326C73.4626 34.8884 76.417 40.3185 76.417 45.5889C76.417 51.658 72.8237 57.2491 67.1532 59.5652ZM26.8246 43.5935L20.2761 39.7605C19.7174 39.4414 19.4776 38.9619 19.4776 38.323V20.7542C19.4776 12.2096 26.026 5.74063 34.8905 5.74063C38.245 5.74063 41.3589 6.85893 43.9949 8.85533L28.2627 17.9594C27.3047 18.5182 26.8254 19.3167 26.8254 20.4352V43.5942L26.8246 43.5935ZM40.9198 51.7389L31.5362 46.4683V35.2885L40.9198 30.018L50.3028 35.2885V46.4683L40.9198 51.7389ZM46.9491 76.0163C43.5948 76.0163 40.4809 74.898 37.8449 72.9018L53.5769 63.7974C54.5351 63.2387 55.0144 62.4402 55.0144 61.3217V38.1627L61.643 41.9957C62.2018 42.3148 62.4416 42.7941 62.4416 43.4332V61.002C62.4416 69.5466 55.813 76.0163 46.9491 76.0163ZM28.0224 58.2079L12.7689 49.4236C8.37626 46.8676 5.42186 41.4377 5.42186 36.1672C5.42186 30.018 9.09546 24.5078 14.7651 22.1917V40.3994C14.7651 41.5177 15.2446 42.3163 16.2026 42.8752L36.1677 54.4543L29.6193 58.2079C29.0606 58.5269 28.5811 58.5269 28.0224 58.2079ZM27.1444 71.3047C18.1203 71.3047 11.4918 64.5166 11.4918 56.1314C11.4918 55.4925 11.5719 54.8535 11.6513 54.2146L27.3834 63.3188C28.3414 63.8777 29.3003 63.8777 30.2583 63.3188L50.3028 51.7397V59.3263C50.3028 59.9653 50.0631 60.4446 49.5042 60.7637L34.2509 69.5481C32.1745 70.746 29.6995 71.3047 27.1444 71.3047ZM46.9491 80.8075C56.6122 80.8075 64.6775 73.9399 66.5149 64.8357C75.459 62.5196 81.209 54.1344 81.209 45.5897C81.209 39.9993 78.8134 34.5694 74.5008 30.6561C74.9001 28.979 75.1398 27.3018 75.1398 25.6255C75.1398 14.2058 65.876 5.66043 55.1747 5.66043C53.019 5.66043 50.9426 5.97943 48.8661 6.69863C45.2719 3.18463 40.3206 0.94873 34.8905 0.94873C25.2276 0.94873 17.1623 7.81623 15.3249 16.9204C6.38076 19.2365 0.630859 27.6217 0.630859 36.1663C0.630859 41.7567 3.02636 47.1867 7.33886 51.0999C6.93966 52.7771 6.69996 54.4543 6.69996 56.1308C6.69996 67.5504 15.9638 76.0957 26.6649 76.0957C28.8208 76.0957 30.8972 75.7766 32.9737 75.0575C36.567 78.5714 41.5183 80.8075 46.9491 80.8075Z"></path></g></g></svg>