<svg xmlns="http://www.w3.org/2000/svg" width="78" height="18" viewBox="0 0 78 18" fill="none" class="h-auto w-28"><g clip-path="url(#clip0_24884_5936)"><path fill-rule="evenodd" clip-rule="evenodd" d="M10.3266 17.9378H2.39336C1.43213 17.9378 0.648438 17.1557 0.648438 16.1909V8.24586C0.648438 7.26066 1.04662 6.29577 1.74408 5.59752L6.18246 1.15653C6.89008 0.450645 7.83101 0.0596161 8.82521 0.0596161H16.7611C17.7223 0.0596161 18.506 0.841677 18.506 1.80656V9.75156C18.506 10.7368 18.1078 11.7016 17.4103 12.3999L12.9719 16.8434C12.2618 17.5493 11.3234 17.9404 10.3266 17.9404V17.9378ZM6.7658 1.74054L3.59706 4.91295H13.6589V14.9851L16.827 11.8134C17.3698 11.27 17.6792 10.5184 17.6792 9.75156V1.80656C17.6792 1.30126 17.2683 0.887382 16.7611 0.887382H8.82521C8.04913 0.887382 7.3187 1.18954 6.7658 1.74054ZM3.45462 15.1305V5.05554L2.32741 6.18405C1.78466 6.72744 1.47525 7.47903 1.47525 8.24586V16.1909C1.47525 16.6962 1.88612 17.11 2.39336 17.11H10.3292C11.1053 17.11 11.8382 16.8053 12.3886 16.2569L13.5137 15.1305H3.45462ZM4.73016 12.8316H9.06699V13.8533H4.73016V12.8316ZM23.3394 11.768C23.4309 11.6001 23.4766 11.4094 23.4766 11.1931V6.19473H25.1685V11.3203C25.1685 11.8036 25.0567 12.2361 24.8357 12.6202C24.6147 13.0043 24.3098 13.307 23.9212 13.5257C23.5325 13.7445 23.0955 13.8539 22.6078 13.8539H21.3122V12.2946H22.3817C22.5976 12.2946 22.7856 12.2488 22.9533 12.1572C23.1209 12.0656 23.248 11.9359 23.3394 11.768ZM31.5755 10.7276H28.0316V10.7302V12.376H32.0581V13.8513H26.3829V6.19473H31.9488V7.67007H28.0316V9.29553H31.5755V10.7276ZM34.855 7.71333H32.5891L32.5867 7.71588V6.19473H38.803V7.71333H36.5472V13.8488H34.855V7.71333ZM44.1582 9.8475C44.308 9.88821 44.4527 9.94164 44.5849 10.0129L44.5876 10.0103C44.9001 10.1756 45.1413 10.4071 45.3165 10.7073C45.4918 11.0074 45.5784 11.3458 45.5784 11.7248C45.5784 12.1369 45.4666 12.5032 45.2455 12.8237C45.022 13.1467 44.7095 13.396 44.308 13.5766C43.9042 13.7572 43.447 13.8462 42.9337 13.8462H39.4711V6.18963H42.8678C43.3553 6.18963 43.7924 6.27612 44.1735 6.44655C44.5546 6.61953 44.8518 6.85863 45.0625 7.16388C45.2734 7.47168 45.38 7.82016 45.38 8.20935C45.38 8.55021 45.2988 8.85036 45.1413 9.11238C44.984 9.37437 44.7628 9.57789 44.4833 9.72288C44.3817 9.77373 44.2724 9.81444 44.1582 9.8475ZM42.6161 7.4793H41.1148V9.35403H42.6161C42.8244 9.35403 43.0074 9.31587 43.1674 9.23703C43.3274 9.15816 43.452 9.04878 43.5407 8.90379C43.6297 8.7588 43.6756 8.58327 43.6756 8.3976C43.6756 8.2119 43.6297 8.04909 43.5407 7.91175C43.452 7.77183 43.3274 7.665 43.1674 7.59123C43.0074 7.51746 42.8244 7.4793 42.6161 7.4793ZM43.2921 12.4472C43.4673 12.3683 43.6043 12.2564 43.701 12.1114C43.7975 11.9664 43.8457 11.7985 43.8457 11.6027C43.8457 11.4068 43.7948 11.2338 43.6983 11.0812C43.6019 10.9286 43.4622 10.8116 43.287 10.7276C43.109 10.6437 42.9083 10.6004 42.6823 10.6004H41.1148V12.5642H42.6823C42.9133 12.5642 43.1141 12.526 43.2921 12.4472ZM52.2366 9.89583C52.0029 10.2647 51.6752 10.5521 51.2509 10.7556H51.2536C51.1724 10.7938 51.0858 10.8268 50.9995 10.8574L52.7475 13.8513H50.8141L49.2618 11.0634H48.1592V13.8513H46.4649V6.19473H49.8131C50.3671 6.19473 50.8521 6.29394 51.2713 6.49488C51.6904 6.69585 52.0158 6.97818 52.2444 7.34448C52.473 7.71078 52.5872 8.12286 52.5872 8.61126C52.5872 9.09966 52.4703 9.52701 52.2366 9.89583ZM50.2985 9.56007C50.4737 9.47613 50.6083 9.35148 50.7023 9.19122V9.18615C50.7964 9.02589 50.8446 8.83764 50.8446 8.62398C50.8446 8.41032 50.7964 8.22207 50.7023 8.06436C50.6083 7.90665 50.4737 7.782 50.2985 7.69806C50.1232 7.61412 49.9174 7.57089 49.681 7.57089H48.1568V9.68979H49.681C49.9174 9.68979 50.1232 9.64656 50.2985 9.56007ZM53.2251 13.8513L55.956 6.19473H57.7902L60.5871 13.8513H58.9003L58.3211 12.1623H55.4859L54.9448 13.8513H53.2251ZM56.7485 8.17884L55.8694 10.8802H57.8969L56.9567 8.17884L56.8527 7.68789L56.7485 8.17884ZM62.8965 13.8513H61.1486V6.19473H62.8965V13.8513ZM65.7722 6.19473L69.0619 11.3737V6.19473H70.6067V13.8513H68.9399L65.6679 8.67231V13.8513H64.1234V6.19473H65.7722ZM76.4089 9.71523C76.7062 9.93144 76.9399 10.1986 77.1049 10.5165L77.0998 10.514C77.2649 10.8345 77.3488 11.183 77.3488 11.562C77.3488 12.0249 77.2269 12.4396 76.9806 12.8059C76.734 13.1722 76.3937 13.4596 75.9541 13.6682C75.5173 13.8768 75.0092 13.981 74.445 13.981C73.8811 13.981 73.3808 13.8793 72.9436 13.6758C72.5068 13.4723 72.1638 13.1874 71.9148 12.8237C71.6634 12.4574 71.5364 12.0376 71.5286 11.5594H73.2232C73.2232 11.7553 73.2741 11.9308 73.3808 12.0809C73.4847 12.2335 73.6321 12.3505 73.8227 12.4319C74.0133 12.5133 74.2344 12.554 74.4681 12.554C74.7018 12.554 74.9049 12.5184 75.0778 12.4447C75.2504 12.3709 75.3852 12.2666 75.4817 12.1318C75.5781 11.997 75.6264 11.8418 75.6264 11.6713C75.6264 11.4577 75.5628 11.2822 75.4307 11.1397C75.2986 10.9973 75.1209 10.8981 74.8947 10.8446L73.518 10.5598C73.1573 10.4834 72.8421 10.3461 72.5676 10.1502C72.2959 9.95436 72.085 9.70761 71.9352 9.40998C71.7853 9.11493 71.7116 8.78169 71.7116 8.41284C71.7116 7.95753 71.8285 7.55307 72.0598 7.19694C72.2908 6.84084 72.6159 6.56355 73.0302 6.36261C73.4443 6.16167 73.9168 6.06246 74.4501 6.06246C74.9837 6.06246 75.4613 6.15912 75.878 6.35244C76.2945 6.54576 76.6223 6.81285 76.856 7.15626C77.0897 7.49712 77.2143 7.89138 77.2245 8.33655H75.5299C75.5299 8.17119 75.484 8.0262 75.3954 7.89648C75.3064 7.76676 75.1817 7.66755 75.0217 7.59633C74.8618 7.52508 74.6739 7.48947 74.4654 7.48947C74.2571 7.48947 74.0741 7.52256 73.9168 7.59123C73.7592 7.6599 73.6348 7.75404 73.5483 7.87614C73.4596 7.99821 73.4161 8.14068 73.4161 8.30601C73.4161 8.48661 73.4772 8.63925 73.5965 8.76135C73.716 8.88345 73.8787 8.96739 74.0819 9.01572L75.3825 9.28281C75.7687 9.35658 76.1117 9.49902 76.4089 9.71523Z" fill="white"></path></g><defs><clipPath id="clip0_24884_5936"><rect width="77" height="18" fill="white" transform="translate(0.5)"></rect></clipPath></defs></svg>