<svg width="200" height="50" viewBox="0 0 775 119" preserveAspectRatio="xMidYMid meet" fill="#c0c1c6" xmlns="http://www.w3.org/2000/svg" class="h-10 sm:h-8 fill-gray-200"><g clip-path="url(#clip0_60_51)"><path d="M76.6307 28.5038V14.1094H70.4141V71.8904H76.6307V39.1002C76.7312 27.5054 83.0469 19.8075 92.3717 19.8075C95.8801 19.8075 98.4872 20.608 100.594 22.1056V15.9083C98.6879 14.6078 96.2815 13.9085 93.3745 13.9085C85.354 13.9085 79.237 19.1082 76.6307 28.5038Z"></path><path d="M130.517 67.6917C116.28 67.6917 106.856 56.8946 106.856 42.9998C106.856 29.0045 116.28 18.5078 130.517 18.5078C144.754 18.5078 154.18 29.0045 154.18 42.9998C154.18 56.8946 144.754 67.6917 130.517 67.6917ZM130.517 12.8089C112.871 12.8089 100.439 26.0056 100.439 42.9998C100.439 59.9937 112.871 73.3896 130.517 73.3896C148.263 73.3896 160.495 59.9937 160.495 42.9998C160.495 26.0056 148.263 12.8089 130.517 12.8089Z"></path><path d="M213.769 45.7961C213.769 58.2926 206.352 67.6891 193.818 67.6891C181.587 67.6891 175.17 60.2923 175.17 47.1952V14.1092H169.053V47.9976C169.053 63.9924 177.274 73.3904 192.113 73.3904C202.44 73.3904 210.461 67.591 213.769 57.1945V71.8902H219.886V14.1092H213.769V45.7961Z"></path><path d="M260.777 67.6915C246.841 67.6915 237.617 56.7955 237.617 43.0986C237.617 29.3041 247.142 18.5076 261.279 18.5076C275.316 18.5076 284.34 29.104 284.34 42.7997C284.34 56.7955 275.115 67.6915 260.777 67.6915ZM263.157 12.8087C250.425 12.8087 241.101 20.4077 237.49 30.7028V14.1092H231.375V92.1833L237.49 90.9733V56.4945C241.5 66.2924 250.323 73.3895 262.255 73.3895C277.795 73.3895 290.429 60.4931 290.429 42.599C290.429 25.8052 279.2 12.8087 263.157 12.8087Z"></path><path d="M326.536 18.5078C339.57 18.5078 346.388 26.3046 346.589 37.6019H304.58C306.183 26.4058 313.904 18.5078 326.536 18.5078ZM352.505 42.3004V38.4009C352.505 22.9069 343.181 12.8089 326.838 12.8089C308.691 12.8089 297.962 26.0056 297.962 42.7003C297.962 60.6934 309.995 73.3896 328.342 73.3896C337.365 73.3896 345.387 70.3902 350.8 65.8927V59.9937C345.887 64.1924 338.368 67.6917 329.244 67.6917C313.804 67.6917 304.379 57.6952 304.279 42.7999V42.3004H352.505Z"></path><path d="M29.6498 67.6915C15.3123 67.6915 6.08799 56.7955 6.08799 42.7997C6.08799 29.104 15.1119 18.5076 29.1488 18.5076C43.2858 18.5076 52.8105 29.3041 52.8105 43.0986C52.8105 56.7955 43.5862 67.6915 29.6498 67.6915ZM52.7121 14.1092V30.1232C48.9576 20.1272 39.7621 12.8087 27.2719 12.8087C11.2299 12.8087 0 25.8052 0 42.599C0 60.4931 12.6346 73.3895 28.174 73.3895C39.8958 73.3895 48.6071 66.5324 52.7121 57.0013V63.6927C52.7121 77.6878 44.29 86.4845 28.7501 86.4845C19.5257 86.4845 12.0065 83.786 5.78979 78.3862V84.5864C11.7061 89.685 20.0274 92.1833 28.9499 92.1833C46.3955 92.1833 58.7283 81.8858 58.7283 64.2933V14.1092H52.7121Z"></path><path d="M770.842 98.5351C728.056 93.564 661.116 91.3062 591.774 92.4939C534.034 93.4837 447.079 97.2661 360.722 109.672C358.152 110.04 356.368 112.417 356.739 114.98C357.076 117.316 359.087 119 361.387 119C361.61 119 361.836 118.985 362.064 118.952C447.935 106.616 534.466 102.854 591.935 101.869C660.884 100.688 727.357 102.923 769.754 107.848C772.331 108.146 774.667 106.306 774.968 103.734C775.271 101.162 773.421 98.8342 770.842 98.5351Z"></path><path d="M747.398 -0.00138653L730.253 3.39861V71.8918H747.398V-0.00138653Z"></path><path d="M675.827 36.7031C677.332 29.7045 682.948 24.9067 692.17 24.9067C701.296 24.9067 706.61 29.2053 707.41 36.7031H675.827ZM721.847 39.5012C721.847 22.3064 711.321 11.71 691.771 11.71C671.016 11.71 658.684 25.2057 658.684 42.1998C658.684 60.7951 672.62 73.6899 694.276 73.6899C704.302 73.6899 713.827 70.5908 719.842 66.1921V52.9959C714.228 56.9948 706.91 59.8955 698.188 59.8955C685.453 59.8955 677.532 54.5966 675.628 45.6991H721.847V39.5012Z"></path><path d="M379.422 42.0015C379.422 32.5026 383.834 26.0055 391.455 26.0055C398.471 26.0055 402.181 31.104 402.181 38.9008V71.8904H419.127V40.301C419.127 31.9045 423.137 26.0055 430.956 26.0055C438.176 26.0055 441.785 31.2052 441.785 40.301V71.8904H458.829V36.7032C458.829 20.7077 451.41 11.7101 437.876 11.7101C427.749 11.7101 421.132 16.3086 417.722 26.0055C415.015 16.909 408.398 11.7101 398.873 11.7101C389.248 11.7101 382.832 16.2097 379.322 26.3053V14.1094H362.479V71.8904H379.422V42.0015Z"></path><path d="M493.558 73.9912C503.583 73.9912 511.604 69.3917 515.514 60.0954V71.8904H532.559V14.1094H515.514V44.2998C515.514 54.2963 510.1 60.4941 500.676 60.4941C491.652 60.4941 487.04 55.4971 487.04 45.1V14.1094H469.996V48.5975C469.996 64.8927 478.418 73.9912 493.558 73.9912Z"></path><path d="M611.628 73.9912C621.654 73.9912 629.675 69.3917 633.584 60.0954V71.8904H650.63V14.1094H633.584V44.2998C633.584 54.2963 628.17 60.4941 618.746 60.4941C609.722 60.4941 605.11 55.4971 605.11 45.1V14.1094H588.066V48.5975C588.066 64.8927 596.488 73.9912 611.628 73.9912Z"></path><path d="M582.846 68.7029C578.681 72.2321 573.259 73.9912 567.069 73.9912C551.929 73.9912 543.507 64.8927 543.507 48.5975V3.37853L560.552 -0.00137621V14.1094H578.064V26.8069H560.552V45.1C560.552 55.4971 565.163 60.4941 574.188 60.4941C576.072 60.4941 577.789 60.2352 579.341 59.7592C580.145 63.0384 581.327 66.027 582.846 68.7029Z"></path></g><defs><clipPath id="clip0_60_51"><rect width="775" height="119"></rect></clipPath></defs></svg>