<svg viewBox="0 0 638 132" fill="#c0c1c6" xmlns="http://www.w3.org/2000/svg" class="h-6  sm:h-9 fill-gray-200 hover:fill-white"><path d="M205.1 25.7L234.1 102.8H218.1L212 86.3H180L173.9 102.9H158.2L187 25.8L205.1 25.7ZM185 72.9H206.8L195.9 43.3L185 72.9ZM306.6 102.9H292.9L256.8 49.7V102.9H241.6V25.8H257.6L291.5 76.4V25.8H306.7L306.6 102.9ZM320.2 25.7H346.8C371.1 25.7 385.9 40.8 385.9 64.3C385.9 87.8 371 102.9 346.7 102.9H320.1V25.7H320.2ZM346.7 89.4C361.6 89.4 370.2 79.5 370.2 64.4C370.2 49.1 361.6 39.4 346.6 39.4H335.6V89.4H346.7ZM394.4 72.1V25.8H410.2V71.6C410.2 84.6 416.5 90.2 426.2 90.2C435.9 90.2 442.2 84.6 442.2 71.6V25.8H458V72.1C458 93.4 445.2 104 426.1 104C407 104 394.4 93.4 394.4 72.1ZM486.2 102.9H470.4V25.8H502C519.8 25.8 530.8 34.1 530.8 50.1C530.8 61.8 524.5 69.6 513.6 72.8L532.8 103H514.7L496.9 74.3H486.1L486.2 102.9ZM501.1 61C510.3 61 515 57 515 50.1C515 43.1 510.2 39.2 501.1 39.2H486.1V61H501.1ZM557.1 102.9H541.3V25.8H557.1V102.9ZM570.5 25.7H586.3V89.2H621.8V102.9H570.6L570.5 25.7ZM139 80.9C137.5 80.2 136 79.3 134.5 78.5C129.6 75.6 125 72.2 120.9 68.3C119.5 67 118 65.6 116.7 64.1C104.7 51.1 97.6001 34.4 96.6001 16.8L96.4001 12.2V11.8C96.4001 11.4 96.1001 11 95.7001 11C95.7001 11 95.7001 11 95.6001 11H65.2001C64.8001 11 64.4001 11.4 64.4001 11.8C64.4001 11.8 64.4001 11.8 64.4001 11.9V12.3L64.2001 16.9C63.1001 34.3 56.2001 50.8 44.5001 63.8C43.2001 65.3 41.8001 66.7 40.3001 68C36.2001 72 31.6001 75.5 26.7001 78.4C25.2001 79.3 23.7001 80.1 22.2001 80.8C21.8001 81 21.6001 81.5 21.8001 81.9C22.5001 83.5 23.2001 85 23.9001 86.3C26.6001 91.5 29.9001 96.2 33.9001 100.5C35.1001 101.8 36.3001 103 37.6001 104.2C61.9001 126.4 99.1001 126.5 123.5 104.4C124.8 103.2 126 102 127.2 100.8C131.2 96.6 134.6 91.8 137.2 86.7C138 85.2 138.7 83.7 139.3 82.2C139.5 81.6 139.4 81.1 139 80.9ZM47.3001 101.6C47.3001 102 47.0001 102.4 46.6001 102.4C46.4001 102.4 46.2001 102.4 46.1001 102.2C45.1001 101.5 44.2001 100.8 43.4001 100C42.0001 98.8 40.9001 97.7 39.8001 96.6C36.3001 92.9 33.2001 88.8 30.8001 84.3C30.6001 83.9 30.7001 83.5 31.1001 83.2C35.5001 80.5 39.6001 77.4 43.5001 74C44.9001 72.8 46.2001 71.5 47.5001 70.1C57.8001 59.5 65.1001 46.4 68.6001 32.1C68.6001 31.7 69.0001 31.3 69.4001 31.3C69.8001 31.3 70.2001 31.7 70.2001 32.1C71.6001 39.5 73.9001 46.8 76.9001 53.8C77.0001 54 77.0001 54.3 76.9001 54.5C71.8001 65.3 64.7001 75 56.1001 83.3C54.8001 84.5 53.6001 85.7 52.4001 87C50.0001 89.8 48.4001 93.2 47.8001 96.8C47.6001 98 47.5001 99.2 47.5001 100.3L47.3001 101.6ZM98.7001 86.3C99.0001 86.6 99.0001 87.1 98.7001 87.4C98.6001 87.5 98.6001 87.5 98.5001 87.5C93.1001 90.7 87.0001 92.4 80.7001 92.4H80.5001C74.1001 92.4 67.7001 90.6 62.2001 87.3C61.8001 87.1 61.7001 86.6 61.9001 86.2L62.0001 86.1C63.6001 84.5 65.2001 82.8 66.6001 81.1C71.5001 75.5 75.9001 69.3 79.5001 62.8C79.7001 62.4 80.2001 62.3 80.6001 62.5C80.7001 62.6 80.8001 62.7 80.9001 62.8C85.8001 71.5 91.8001 79.4 98.7001 86.3ZM56.2001 92.3C56.4001 91.9 56.9001 91.8 57.3001 92.1C64.2001 96.7 72.3001 99.2 80.6001 99.2L82.5001 99.1C84.2001 99 85.8001 98.9 87.5001 98.6C93.4001 97.6 99.1001 95.4 104 92C104.3 91.8 104.7 91.8 105 92.1C108.5 95.1 112.2 97.8 116 100.3C116.4 100.5 116.5 101 116.2 101.4C116.1 101.5 116.1 101.6 116 101.6C106.1 109.5 93.8001 113.8 81.1001 114H80.6001C78.0001 114 75.4001 113.8 72.8001 113.5C67.2001 112.7 61.7001 111.1 56.6001 108.7C56.5001 108.6 56.4001 108.6 56.3001 108.4C52.9001 103.7 52.9001 97.2 56.2001 92.3ZM109 87L105.2 83.6C96.3001 75.1 89.0001 65 83.8001 53.9C82.8001 51.9 82.0001 49.8 81.2001 47.7C77.6001 38.4 75.5001 28.6 74.9001 18.6C74.8001 18.2 75.1001 17.8 75.6001 17.7H75.7001H89.4001C89.8001 17.7 90.2001 18 90.2001 18.4L90.6001 22.9C93.0001 40.9 101.2 57.7 114 70.7C115.3 72 116.6 73.3 118 74.5C121.8 77.9 126 80.9 130.4 83.6C130.8 83.8 130.9 84.3 130.7 84.7C128.4 88.8 125.7 92.6 122.5 96C122.2 96.3 121.8 96.4 121.5 96.2C117 93.4 112.9 90.4 109 87Z"></path></svg>